<svg xmlns="http://www.w3.org/2000/svg" width="1920" height="1147" viewBox="0 0 1920 1147"><g transform="translate(2049 1304)"><path d="M0,0H1920V1147H0Z" transform="translate(-2049 -1304)"/><g transform="translate(-2049 -1483)"><path d="M-4944.415,2858.44v-.119a21.556,21.556,0,0,1,22.02-21.72c7.5,0,12.181,2.04,16.5,5.759l-5.819,7.02c-3.18-2.7-6.18-4.26-10.98-4.26-6.72,0-12.06,5.941-12.06,13.08v.121c0,7.68,5.281,13.32,12.72,13.32a14.612,14.612,0,0,0,8.7-2.521v-6h-9.3v-7.98h18.24v18.24a27.261,27.261,0,0,1-17.939,6.66C-4935.415,2880.041-4944.415,2870.92-4944.415,2858.44Zm-576.96,0v-.119c0-11.941,9-21.72,21.9-21.72,7.861,0,12.721,2.64,16.561,6.48l-5.881,6.78c-3.3-2.94-6.48-4.74-10.74-4.74-7.08,0-12.179,5.88-12.179,13.08v.121c0,7.2,4.979,13.2,12.179,13.2,4.8,0,7.741-1.86,11.041-4.919l5.879,5.939c-4.319,4.62-9.06,7.5-17.219,7.5A21.2,21.2,0,0,1-5521.375,2858.44Zm517.381,14.76,5.459-6.539c3.84,3.121,7.741,5.1,12.54,5.1,3.841,0,6.062-1.5,6.062-3.959v-.121c0-2.339-1.441-3.6-8.461-5.339-8.52-2.1-13.92-4.56-13.92-12.84v-.121c0-7.62,6.06-12.66,14.7-12.66a24.316,24.316,0,0,1,15.6,5.341l-4.8,6.959c-3.78-2.579-7.319-4.139-10.919-4.139s-5.4,1.56-5.4,3.66v.121c0,2.82,1.8,3.6,9.06,5.519,8.52,2.28,13.319,5.28,13.319,12.6v.119c0,8.341-6.359,13.021-15.419,13.021A26.32,26.32,0,0,1-5003.995,2873.2Zm-398.82,6.422-16.981-42.3h10.2l10.981,29.58,10.979-29.58h9.961l-16.981,42.3Zm536.76-.3-20.341-26.7v26.7h-9.12v-42h8.52l19.68,25.861V2837.32h9.121v42Zm-96.241,0v-42h9.24v42Zm-79.02,0v-42h31.681v8.22h-22.5v8.519h19.8v8.22h-19.8v8.82h22.8v8.22Zm-46.92,0v-42h16.381c13.2,0,22.32,9.06,22.32,20.88v.121c0,11.819-9.121,21-22.32,21Zm9.24-8.341h7.141c7.5,0,12.66-5.1,12.66-12.54v-.119c0-7.44-5.161-12.66-12.66-12.66H-5079Zm-43.379,8.341-3.84-9.42h-17.761l-3.84,9.42h-9.42l18-42.3h8.519l18,42.3Zm-18.3-17.579h11.159l-5.58-13.621Zm-32.7,17.579v-42h9.24v42Zm-47.34,0v-42h16.379c13.2,0,22.32,9.06,22.32,20.88v.121c0,11.819-9.12,21-22.32,21Zm9.24-8.341h7.139c7.5,0,12.66-5.1,12.66-12.54v-.119c0-7.44-5.16-12.66-12.66-12.66h-7.139Zm-49.44,8.341v-42h31.681v8.22h-22.5v8.519h19.8v8.22h-19.8v8.82h22.8v8.22Zm-19.26,0V2851.9l-11.819,17.94h-.241l-11.7-17.76v27.24H-5313v-42h9.96l11.041,17.761,11.04-17.761h9.959v42Zm-91.02,0v-42h31.681v8.22h-22.5v8.519h19.8v8.22h-19.8v8.82h22.8v8.22Zm-64.74,0v-42h9.24v42Zm-29.521,0v-33.479h-12.779v-8.521h34.8v8.521h-12.781v33.479Zm-67.5,0-3.84-9.42h-17.759l-3.841,9.42h-9.419l18-42.3h8.52l18,42.3Zm-18.3-17.579h11.161l-5.58-13.621Zm-30.84,17.579-9-13.44h-7.26v13.44h-9.24v-42h19.2c5.341,0,9.42,1.44,12.24,4.26a12.944,12.944,0,0,1,3.6,9.6v.121c0,6.779-3.66,11.04-9,13.019l10.259,15Zm-16.26-21.6h9.361c4.559,0,7.08-2.341,7.08-5.941v-.119c0-4.02-2.7-6-7.26-6h-9.181Zm-49.44,21.6v-42h31.681v8.22h-22.5v8.519h19.8v8.22h-19.8v8.82h22.8v8.22Zm-29.1,0v-33.479h-12.779v-8.521h34.8v8.521h-12.779v33.479Zm-27.719,0-20.34-26.7v26.7h-9.12v-42h8.52l19.679,25.861V2837.32h9.121v42Zm-49.2,0v-42h9.24v42Zm706.106-139.28v-.219c0-21.89,17.05-39.821,40.37-39.821,13.75,0,22.329,3.741,30.25,10.561l-10.67,12.869c-5.83-4.95-11.331-7.809-20.131-7.809-12.32,0-22.109,10.889-22.109,23.979v.221c0,14.08,9.679,24.419,23.32,24.419,6.271,0,11.661-1.54,15.949-4.62v-11h-17.049v-14.63h33.44v33.44a49.985,49.985,0,0,1-32.891,12.21C-5031.209,2779.64-5047.709,2762.921-5047.709,2740.04Zm-533.39,5.28v-44h16.94v43.561c0,12.648,6.159,19.029,16.609,19.029s16.61-6.16,16.61-18.48v-44.11H-5514v43.45c0,23.32-13.09,34.759-33.77,34.759S-5581.1,2768.09-5581.1,2745.32Zm79.09,21.781,10.009-11.99c7.041,5.72,14.191,9.349,22.991,9.349,7.039,0,11.11-2.749,11.11-7.26v-.219c0-4.29-2.641-6.6-15.51-9.791-15.62-3.85-25.52-8.36-25.52-23.539v-.221c0-13.969,11.11-23.209,26.949-23.209a44.58,44.58,0,0,1,28.6,9.789l-8.8,12.76c-6.93-4.73-13.42-7.59-20.021-7.59s-9.9,2.859-9.9,6.709v.221c0,5.169,3.3,6.6,16.609,10.119,15.621,4.181,24.421,9.68,24.421,23.1v.221c0,15.29-11.661,23.87-28.271,23.87A48.253,48.253,0,0,1-5502.009,2767.1Zm645.48,11.219v-61.38h-23.43v-15.62h63.8v15.62h-23.43v61.38Zm-53.35,0V2747.41h-31.241v30.909h-16.94v-77h16.94v30.471h31.241V2701.32h16.939v77Zm-170.611,0v-77h16.94v77Zm-33.66,0-37.29-48.949v48.949h-16.719v-77h15.62l36.08,47.409V2701.32h16.72v77Zm-144.1,0v-30.36l-29.589-46.639h19.8l18.37,30.909,18.7-30.909h19.25l-29.59,46.31v30.69Zm-51.7,0-16.5-24.639h-13.31v24.639h-16.94v-77h35.2c9.791,0,17.27,2.64,22.44,7.811,4.4,4.4,6.6,10.229,6.6,17.6v.219c0,12.431-6.709,20.24-16.5,23.87l18.81,27.5Zm-29.81-39.6h17.16c8.36,0,12.98-4.289,12.98-10.889v-.221c0-7.369-4.95-11-13.31-11h-16.83Zm-70.29,39.6v-61.38h-23.43v-15.62h63.8v15.62h-23.43v61.38Zm-255.859,0v-77h30.029c24.2,0,40.921,16.61,40.921,38.28v.221c0,21.669-16.721,38.5-40.921,38.5Zm16.94-15.29h13.089c13.751,0,23.21-9.349,23.21-22.99v-.219c0-13.641-9.459-23.211-23.21-23.211h-13.089Zm-49.831,15.29-37.29-48.949v48.949h-16.72v-77h15.62l36.08,47.409V2701.32h16.721v77Zm-90.2,0v-77h16.94v77Z" transform="translate(6266.215 -2258.32)" fill="none" stroke="#fff" stroke-width="3"/><path d="M-5405.716,1610v0Zm684.793,34.688v-.089c0-8.711,6.555-15.928,15.576-15.928a15.8,15.8,0,0,1,12.012,4.885l-2.376,2.551c-2.639-2.464-5.455-4.223-9.68-4.223-6.82,0-11.924,5.544-11.924,12.628v.087c0,7.128,5.1,12.717,11.924,12.717,4.225,0,7-1.627,9.945-4.444l2.288,2.243a16.036,16.036,0,0,1-12.32,5.412C-4714.368,1660.528-4720.923,1653.531-4720.923,1644.688Zm-131.825,0v-.089A15.605,15.605,0,0,1-4837,1628.671c9.373,0,15.665,7.349,15.665,15.841v.087a15.605,15.605,0,0,1-15.752,15.928C-4846.455,1660.528-4852.748,1653.18-4852.748,1644.688Zm3.608-.176v.087c0,7,5.1,12.717,12.144,12.717s12.056-5.633,12.056-12.628v-.089c0-6.995-5.1-12.715-12.144-12.715S-4849.14,1637.516-4849.14,1644.512Zm-211.993.176v-.089a15.605,15.605,0,0,1,15.752-15.928c9.373,0,15.665,7.349,15.665,15.841v.087a15.605,15.605,0,0,1-15.752,15.928C-5054.839,1660.528-5061.132,1653.18-5061.132,1644.688Zm3.608-.176v.087c0,7,5.1,12.717,12.144,12.717s12.056-5.633,12.056-12.628v-.089c0-6.995-5.1-12.715-12.144-12.715S-5057.524,1637.516-5057.524,1644.512Zm-115.939.176v-.089a15.605,15.605,0,0,1,15.752-15.928c9.372,0,15.663,7.349,15.663,15.841v.087a15.6,15.6,0,0,1-15.752,15.928C-5167.172,1660.528-5173.463,1653.18-5173.463,1644.688Zm3.608-.176v.087c0,7,5.1,12.717,12.144,12.717s12.056-5.633,12.056-12.628v-.089c0-6.995-5.1-12.715-12.145-12.715S-5169.855,1637.516-5169.855,1644.512Zm-40.788.176v-.089a15.6,15.6,0,0,1,15.752-15.928c9.372,0,15.664,7.349,15.664,15.841v.087a15.6,15.6,0,0,1-15.752,15.928C-5204.351,1660.528-5210.643,1653.18-5210.643,1644.688Zm3.607-.176v.087c0,7,5.1,12.717,12.145,12.717s12.056-5.633,12.056-12.628v-.089c0-6.995-5.1-12.715-12.145-12.715S-5207.036,1637.516-5207.036,1644.512Zm-37.883.176v-.089c0-8.448,6.2-15.928,15.443-15.928a16.23,16.23,0,0,1,11.484,4.093l-2.243,2.64a13.1,13.1,0,0,0-9.373-3.52c-6.82,0-11.7,5.763-11.7,12.628v.087c0,7.349,4.708,12.8,12.188,12.8a14.509,14.509,0,0,0,8.889-3.08v-7.655h-9.373v-3.124h12.716v12.277a18.358,18.358,0,0,1-12.364,4.707C-5238.935,1660.528-5244.919,1653.488-5244.919,1644.688Zm-288.226,0v-.089c0-8.624,5.148-15.928,13.069-15.928s12.936,7.217,12.936,15.841v.087c0,8.625-5.1,15.928-13.024,15.928C-5528.128,1660.528-5533.145,1653.312-5533.145,1644.688Zm3.608-.176v.087c0,6.688,3.653,12.761,9.46,12.761s9.327-5.941,9.327-12.672v-.089c0-6.687-3.651-12.759-9.416-12.759S-5529.536,1637.736-5529.536,1644.512Zm506.464,2.6V1629.2h3.477v17.687c0,6.688,3.476,10.384,9.416,10.384,5.676,0,9.284-3.432,9.284-10.164V1629.2h3.476v17.644c0,9.019-5.148,13.641-12.849,13.641C-5017.88,1660.485-5023.072,1655.82-5023.072,1647.108ZM-4482.84,1660v-30.8h22.264v3.169h-18.788v10.515h16.808v3.169h-16.808v10.78h19.007V1660Zm-10.383,0-8.933-11.969h-8.8V1660h-3.475v-30.8h13.244c3.828,0,6.82,1.145,8.755,3.08a8.327,8.327,0,0,1,2.376,6.072v.087c0,5.1-3.52,8.14-8.36,8.976l9.46,12.585Zm-17.733-15.093h9.46c4.575,0,7.92-2.375,7.92-6.336v-.087c0-3.828-2.905-6.073-7.876-6.073h-9.5ZM-4534.408,1660v-27.589h-10.384V1629.2h24.244v3.212h-10.383V1660Zm-13.815,0-3.608-8.141H-4568.6l-3.652,8.141h-3.564l14.036-31.021h3.256l14.036,31.021Zm-19.009-11.264h14.037l-7-15.709Zm-35.2,11.264v-30.8h22.263v3.169h-18.787v10.515h16.808v3.169h-16.808v10.78h19.008V1660Zm-11.969,0V1646.14h-17.776V1660h-3.476v-30.8h3.476v13.683h17.776V1629.2h3.476V1660Zm-41.228,0v-27.589h-10.385V1629.2h24.244v3.212h-10.384V1660Zm-32.516,0v-4.62h4.047V1660Zm-42.68,0-19.889-25.257V1660h-3.387v-30.8h3.255l19.4,24.684V1629.2h3.388V1660Zm-35.552,0v-30.8h3.477V1660Zm-24.552,0-19.888-25.257V1660h-3.388v-30.8h3.256l19.4,24.684V1629.2h3.388V1660Zm-72.732,0v-30.8h3.476V1660Zm-20.284,0v-27.589h-10.384V1629.2h24.245v3.212h-10.384V1660Zm-13.815,0-3.608-8.141h-16.765l-3.652,8.141h-3.564l14.037-31.021h3.255l14.037,31.021Zm-19.008-11.264h14.036l-7-15.709Zm-38.1,11.264v-30.8h10.691c9.681,0,16.368,6.644,16.368,15.312v.087c0,8.668-6.687,15.4-16.368,15.4Zm3.476-3.213h7.215c7.789,0,12.761-5.236,12.761-12.1v-.089c0-6.819-4.973-12.188-12.761-12.188h-7.215Zm-14.741,3.213-19.888-25.257V1660h-3.388v-30.8h3.256l19.4,24.684V1629.2h3.388V1660Zm-121.615,0v-30.8h22.132v3.212h-18.657v11h16.676v3.167h-16.676V1660Zm-47.168,0v-30.8h10.692c9.679,0,16.368,6.644,16.368,15.312v.087c0,8.668-6.688,15.4-16.368,15.4Zm3.477-3.213h7.216c7.789,0,12.759-5.236,12.759-12.1v-.089c0-6.819-4.971-12.188-12.759-12.188h-7.216ZM-5285.8,1660v-30.8h22.264v3.169h-18.789v10.515h16.809v3.169h-16.809v10.78h19.009V1660Zm-11.967,0V1646.14h-17.776V1660h-3.477v-30.8h3.477v13.683h17.776V1629.2h3.476V1660Zm-41.229,0v-27.589h-10.383V1629.2h24.244v3.212h-10.384V1660Zm-122.08,0v-7.3h-16.236l-.88-2.508,17.424-21.208h3.036v20.813h4.8v2.9h-4.8v7.3Zm-12.936-10.208h12.936v-15.884ZM-5502.96,1660v-2.684l11.177-9.856c4.707-4.224,6.423-6.6,6.423-9.679a5.886,5.886,0,0,0-6.2-5.9c-3.52,0-5.807,1.8-8.271,5.279l-2.553-1.848c2.86-4.136,5.632-6.555,11.089-6.555,5.544,0,9.548,3.7,9.548,8.713v.087c0,4.488-2.376,7.26-7.789,11.967l-8.227,7.3h16.324V1660Zm-56.936,0v-2.684l11.175-9.856c4.708-4.224,6.425-6.6,6.425-9.679a5.887,5.887,0,0,0-6.2-5.9c-3.52,0-5.808,1.8-8.273,5.279l-2.551-1.848c2.859-4.136,5.632-6.555,11.087-6.555,5.544,0,9.548,3.7,9.548,8.713v.087c0,4.488-2.375,7.26-7.787,11.967l-8.229,7.3h16.324V1660Zm-37.576,0v-30.8H-5594v27.587h17.335V1660Zm-12.277,0v-30.8h3.477V1660Zm-10.691,0-8.933-11.969h-8.8V1660h-3.477v-30.8h13.244c3.829,0,6.82,1.145,8.757,3.08a8.326,8.326,0,0,1,2.375,6.072v.087c0,5.1-3.52,8.14-8.36,8.976l9.46,12.585Zm-17.732-15.093h9.459c4.577,0,7.92-2.375,7.92-6.336v-.087c0-3.828-2.9-6.073-7.876-6.073h-9.5ZM-5670.82,1660v-30.8h11.528c6.952,0,11.529,3.7,11.529,9.768v.087c0,6.644-5.544,10.076-12.1,10.076h-7.48V1660Zm3.476-14.036h7.612c5.1,0,8.449-2.729,8.449-6.777v-.087c0-4.4-3.3-6.688-8.272-6.688h-7.789ZM-5680.412,1660l-3.609-8.141h-16.763l-3.653,8.141H-5708l14.036-31.021h3.256l14.036,31.021Zm-19.008-11.264h14.036l-7-15.709Z" transform="translate(6043.716 -1314)" fill="#fff" stroke="#fff" stroke-width="2"/><path d="M63.586,29V8.8H56.039v-2.7H74.2V8.8H66.617V29Zm13.2,0V6.094H79.6v8.219a6.283,6.283,0,0,1,4.969-2.281,6.7,6.7,0,0,1,3.2.727,4.266,4.266,0,0,1,1.945,2.008,9.256,9.256,0,0,1,.586,3.719V29H87.489V18.484a4.345,4.345,0,0,0-.914-3.07,3.4,3.4,0,0,0-2.586-.961,4.56,4.56,0,0,0-2.352.648,3.662,3.662,0,0,0-1.57,1.758,8.073,8.073,0,0,0-.469,3.063V29Zm29-5.344,2.906.359a7.091,7.091,0,0,1-2.547,3.953,8.628,8.628,0,0,1-10.523-.836,8.761,8.761,0,0,1-2.133-6.289,9.169,9.169,0,0,1,2.156-6.5,7.3,7.3,0,0,1,5.594-2.312,7.094,7.094,0,0,1,5.438,2.266,9,9,0,0,1,2.109,6.375q0,.25-.016.75H96.391a6.377,6.377,0,0,0,1.547,4.188,4.6,4.6,0,0,0,3.469,1.453,4.3,4.3,0,0,0,2.641-.812A5.393,5.393,0,0,0,105.782,23.656Zm-9.234-4.547h9.266a5.621,5.621,0,0,0-1.062-3.141,4.31,4.31,0,0,0-3.484-1.625,4.468,4.468,0,0,0-3.258,1.3A5.133,5.133,0,0,0,96.547,19.109Zm23.571,2.531,2.859-.25a6.314,6.314,0,0,0,.945,2.82,5.16,5.16,0,0,0,2.3,1.781,8.728,8.728,0,0,0,3.516.68,8.424,8.424,0,0,0,3.063-.516,4.248,4.248,0,0,0,1.977-1.414,3.28,3.28,0,0,0,.648-1.961,2.981,2.981,0,0,0-.625-1.883,4.63,4.63,0,0,0-2.062-1.352,40.312,40.312,0,0,0-4.078-1.117A20.837,20.837,0,0,1,124.243,17a6.2,6.2,0,0,1-2.445-2.133,5.227,5.227,0,0,1-.8-2.852,5.822,5.822,0,0,1,.984-3.242,6.1,6.1,0,0,1,2.875-2.289,10.907,10.907,0,0,1,4.2-.781,11.482,11.482,0,0,1,4.492.82,6.479,6.479,0,0,1,2.992,2.414,6.933,6.933,0,0,1,1.125,3.609l-2.906.219a4.689,4.689,0,0,0-1.586-3.281,6.173,6.173,0,0,0-3.992-1.109,6.407,6.407,0,0,0-4.008,1.008,3.022,3.022,0,0,0-1.258,2.43,2.6,2.6,0,0,0,.891,2.031q.875.8,4.57,1.633a30.23,30.23,0,0,1,5.07,1.461,6.944,6.944,0,0,1,2.953,2.336,5.691,5.691,0,0,1,.953,3.258,6.231,6.231,0,0,1-1.047,3.445,6.893,6.893,0,0,1-3.008,2.516,10.479,10.479,0,0,1-4.414.9,13.18,13.18,0,0,1-5.211-.906,7.3,7.3,0,0,1-3.3-2.727A7.731,7.731,0,0,1,120.118,21.641ZM142.333,29V6.094h7.891a19.14,19.14,0,0,1,4.078.328,7.759,7.759,0,0,1,3.359,1.641,9.32,9.32,0,0,1,2.711,3.914,15.364,15.364,0,0,1,.9,5.445,16,16,0,0,1-.609,4.625,11.22,11.22,0,0,1-1.562,3.336,8.3,8.3,0,0,1-2.086,2.078,8.5,8.5,0,0,1-2.734,1.148A15.606,15.606,0,0,1,150.6,29Zm3.031-2.7h4.891a11.868,11.868,0,0,0,3.555-.422,5.085,5.085,0,0,0,2.055-1.187,7.226,7.226,0,0,0,1.68-2.9,14.17,14.17,0,0,0,.6-4.414,10.659,10.659,0,0,0-1.18-5.523A5.937,5.937,0,0,0,154.1,9.266a11.851,11.851,0,0,0-3.922-.469h-4.812ZM165.282,29V6.094h8.641a20.862,20.862,0,0,1,3.484.219,6.9,6.9,0,0,1,2.828,1.07,5.616,5.616,0,0,1,1.836,2.211,7.017,7.017,0,0,1,.7,3.125,7.041,7.041,0,0,1-1.859,4.945q-1.859,2.023-6.719,2.023h-5.875V29Zm3.031-12.016h5.922q2.937,0,4.172-1.094a3.9,3.9,0,0,0,1.234-3.078,4.14,4.14,0,0,0-.727-2.461A3.4,3.4,0,0,0,177,9a12.952,12.952,0,0,0-2.828-.2h-5.859ZM181.576,29l8.8-22.906h3.266L203.013,29H199.56l-2.672-6.937H187.31L184.794,29Zm6.609-9.406h7.766L193.56,13.25q-1.094-2.891-1.625-4.75a29.2,29.2,0,0,1-1.234,4.375ZM212.756,29V6.094h3.031V29Zm7.856,0V12.406h2.531v2.359a5.965,5.965,0,0,1,5.281-2.734,6.928,6.928,0,0,1,2.758.539,4.338,4.338,0,0,1,1.883,1.414,5.428,5.428,0,0,1,.875,2.078A16.1,16.1,0,0,1,234.1,18.8V29h-2.812V18.906a7.577,7.577,0,0,0-.328-2.57,2.7,2.7,0,0,0-1.164-1.359,3.7,3.7,0,0,0-1.961-.508,4.557,4.557,0,0,0-3.1,1.141q-1.3,1.141-1.3,4.328V29Zm28.4,0V26.906a5.161,5.161,0,0,1-4.641,2.469,6.507,6.507,0,0,1-3.648-1.094,7.193,7.193,0,0,1-2.578-3.055,10.558,10.558,0,0,1-.914-4.508,11.8,11.8,0,0,1,.828-4.508,6.531,6.531,0,0,1,2.484-3.1,6.642,6.642,0,0,1,3.7-1.078,5.534,5.534,0,0,1,4.578,2.281V6.094h2.8V29Zm-8.891-8.281a7.206,7.206,0,0,0,1.344,4.766,4.052,4.052,0,0,0,3.172,1.578,3.978,3.978,0,0,0,3.133-1.508,6.952,6.952,0,0,0,1.289-4.6,7.8,7.8,0,0,0-1.312-5,4.037,4.037,0,0,0-3.234-1.594,3.9,3.9,0,0,0-3.133,1.531A7.558,7.558,0,0,0,240.123,20.719ZM266.76,29V26.563a6.074,6.074,0,0,1-5.266,2.813,6.71,6.71,0,0,1-2.742-.562,4.517,4.517,0,0,1-1.891-1.414,5.3,5.3,0,0,1-.867-2.086,14.282,14.282,0,0,1-.172-2.625V12.406h2.812v9.2a16.4,16.4,0,0,0,.172,2.969,2.933,2.933,0,0,0,1.125,1.742,3.486,3.486,0,0,0,2.125.633,4.629,4.629,0,0,0,2.375-.648A3.605,3.605,0,0,0,266,24.539a8.86,8.86,0,0,0,.461-3.242V12.406h2.813V29Zm5.637-4.953,2.781-.437a3.887,3.887,0,0,0,1.3,2.563,4.547,4.547,0,0,0,2.992.891,4.4,4.4,0,0,0,2.875-.789,2.36,2.36,0,0,0,.938-1.852,1.708,1.708,0,0,0-.828-1.5,12.2,12.2,0,0,0-2.875-.953,26.235,26.235,0,0,1-4.289-1.352,4.094,4.094,0,0,1-2.43-3.8,4.274,4.274,0,0,1,.508-2.055,4.553,4.553,0,0,1,1.383-1.57,5.8,5.8,0,0,1,1.789-.82,8.508,8.508,0,0,1,2.43-.336,9.6,9.6,0,0,1,3.43.563,4.665,4.665,0,0,1,2.18,1.523,5.953,5.953,0,0,1,.969,2.57l-2.75.375a3.008,3.008,0,0,0-1.086-2,3.972,3.972,0,0,0-2.539-.719,4.6,4.6,0,0,0-2.766.641,1.865,1.865,0,0,0-.828,1.5,1.553,1.553,0,0,0,.344.984,2.48,2.48,0,0,0,1.078.75q.422.156,2.484.719a34.585,34.585,0,0,1,4.164,1.3,4.225,4.225,0,0,1,1.852,1.477,4.122,4.122,0,0,1,.672,2.406,4.722,4.722,0,0,1-.82,2.648,5.3,5.3,0,0,1-2.367,1.922,8.616,8.616,0,0,1-3.5.68,7.8,7.8,0,0,1-4.93-1.344A6.249,6.249,0,0,1,272.4,24.047ZM295.5,26.484l.406,2.484a10.432,10.432,0,0,1-2.125.25,4.811,4.811,0,0,1-2.375-.484,2.712,2.712,0,0,1-1.187-1.273,10.07,10.07,0,0,1-.344-3.32V14.594h-2.062V12.406h2.063V8.3l2.8-1.687v5.8H295.5v2.188h-2.828v9.7a4.9,4.9,0,0,0,.148,1.547,1.171,1.171,0,0,0,.484.547,1.871,1.871,0,0,0,.961.2A9.149,9.149,0,0,0,295.5,26.484ZM298.061,29V12.406h2.531v2.516a6.865,6.865,0,0,1,1.789-2.328,3.123,3.123,0,0,1,1.8-.562,5.486,5.486,0,0,1,2.891.906l-.969,2.609a4.024,4.024,0,0,0-2.062-.609,2.678,2.678,0,0,0-1.656.555,3,3,0,0,0-1.047,1.539,10.955,10.955,0,0,0-.469,3.281V29Zm10.4,6.391-.312-2.641a6.267,6.267,0,0,0,1.609.25,3.088,3.088,0,0,0,1.5-.312,2.555,2.555,0,0,0,.922-.875,13.8,13.8,0,0,0,.859-2.094q.078-.234.25-.687l-6.3-16.625h3.031l3.453,9.609q.672,1.828,1.2,3.844a37.842,37.842,0,0,1,1.156-3.781l3.547-9.672H322.2l-6.312,16.875a33.125,33.125,0,0,1-1.578,3.766,5.554,5.554,0,0,1-1.719,2.039,4.06,4.06,0,0,1-2.312.648A5.633,5.633,0,0,1,308.464,35.391ZM333.487,29V6.094H336.6l12.031,17.984V6.094h2.906V29h-3.109L336.394,11V29ZM356.124,9.328V6.094h2.813V9.328Zm0,19.672V12.406h2.813V29Zm6.418,1.375,2.734.406a2.606,2.606,0,0,0,.953,1.844,4.682,4.682,0,0,0,2.859.781,5.022,5.022,0,0,0,3.016-.781,3.845,3.845,0,0,0,1.438-2.187,17.963,17.963,0,0,0,.2-3.609A5.785,5.785,0,0,1,369.152,29a6.263,6.263,0,0,1-5.3-2.469,9.507,9.507,0,0,1-1.875-5.922,11.022,11.022,0,0,1,.859-4.383,6.875,6.875,0,0,1,2.492-3.1,6.729,6.729,0,0,1,3.836-1.094,5.949,5.949,0,0,1,4.844,2.375v-2H376.6V26.75a13.6,13.6,0,0,1-.789,5.492,5.771,5.771,0,0,1-2.5,2.555,8.664,8.664,0,0,1-4.211.938,7.941,7.941,0,0,1-4.8-1.336A4.517,4.517,0,0,1,362.542,30.375Zm2.328-9.969a7.2,7.2,0,0,0,1.3,4.766,4.278,4.278,0,0,0,6.5.008,6.965,6.965,0,0,0,1.313-4.68,6.8,6.8,0,0,0-1.352-4.594,4.179,4.179,0,0,0-3.258-1.547,4.06,4.06,0,0,0-3.187,1.523A6.765,6.765,0,0,0,364.871,20.406ZM380.695,29V6.094h2.813v8.219a6.283,6.283,0,0,1,4.969-2.281,6.7,6.7,0,0,1,3.2.727,4.266,4.266,0,0,1,1.945,2.008,9.256,9.256,0,0,1,.586,3.719V29H391.4V18.484a4.345,4.345,0,0,0-.914-3.07,3.4,3.4,0,0,0-2.586-.961,4.56,4.56,0,0,0-2.352.648,3.662,3.662,0,0,0-1.57,1.758,8.073,8.073,0,0,0-.469,3.063V29Zm23.777-2.516.406,2.484a10.432,10.432,0,0,1-2.125.25,4.811,4.811,0,0,1-2.375-.484,2.712,2.712,0,0,1-1.187-1.273,10.07,10.07,0,0,1-.344-3.32V14.594h-2.062V12.406h2.063V8.3l2.8-1.687v5.8h2.828v2.188h-2.828v9.7a4.9,4.9,0,0,0,.148,1.547,1.171,1.171,0,0,0,.484.547,1.871,1.871,0,0,0,.961.2A9.149,9.149,0,0,0,404.472,26.484ZM416.465,29V14.594H413.98V12.406h2.484V10.641a7.731,7.731,0,0,1,.3-2.484,3.6,3.6,0,0,1,1.43-1.773,5.152,5.152,0,0,1,2.867-.68,13.767,13.767,0,0,1,2.625.281l-.422,2.453a9.438,9.438,0,0,0-1.656-.156,2.465,2.465,0,0,0-1.812.547,2.964,2.964,0,0,0-.531,2.047v1.531H422.5v2.188h-3.234V29Zm7.012-8.3q0-4.609,2.563-6.828a7.721,7.721,0,0,1,5.219-1.844,7.445,7.445,0,0,1,5.594,2.242,8.53,8.53,0,0,1,2.172,6.2,10.977,10.977,0,0,1-.961,5.039,6.8,6.8,0,0,1-2.8,2.852,8.143,8.143,0,0,1-4.008,1.016,7.459,7.459,0,0,1-5.633-2.234Q423.477,24.906,423.477,20.7Zm2.891,0a7.068,7.068,0,0,0,1.391,4.773,4.63,4.63,0,0,0,6.984-.008,7.235,7.235,0,0,0,1.391-4.859,6.856,6.856,0,0,0-1.4-4.664,4.637,4.637,0,0,0-6.977-.008A7.036,7.036,0,0,0,426.367,20.7ZM442.129,29V12.406h2.531v2.516a6.865,6.865,0,0,1,1.789-2.328,3.123,3.123,0,0,1,1.8-.562,5.486,5.486,0,0,1,2.891.906l-.969,2.609a4.024,4.024,0,0,0-2.062-.609,2.678,2.678,0,0,0-1.656.555,3,3,0,0,0-1.047,1.539,10.955,10.955,0,0,0-.469,3.281V29Zm33.258-2.7V29H460.247a4.975,4.975,0,0,1,.328-1.953A10.332,10.332,0,0,1,462.426,24a29.01,29.01,0,0,1,3.68-3.469,31.193,31.193,0,0,0,5.047-4.852,5.809,5.809,0,0,0,1.313-3.383,3.759,3.759,0,0,0-1.2-2.82,4.312,4.312,0,0,0-3.117-1.148,4.392,4.392,0,0,0-3.25,1.219,4.611,4.611,0,0,0-1.234,3.375l-2.891-.3a7.115,7.115,0,0,1,2.234-4.93,7.622,7.622,0,0,1,5.2-1.7,7.26,7.26,0,0,1,5.219,1.828,6,6,0,0,1,1.922,4.531,6.872,6.872,0,0,1-.562,2.7,10.49,10.49,0,0,1-1.867,2.8,45.485,45.485,0,0,1-4.336,4.031q-2.531,2.125-3.25,2.883a9.249,9.249,0,0,0-1.187,1.523Zm2.856-8.594a20.961,20.961,0,0,1,.836-6.539,8.134,8.134,0,0,1,2.484-3.82A6.351,6.351,0,0,1,485.712,6a6.768,6.768,0,0,1,3.234.742,6.183,6.183,0,0,1,2.3,2.141,11.484,11.484,0,0,1,1.422,3.406,22.631,22.631,0,0,1,.516,5.414,21.019,21.019,0,0,1-.828,6.508,8.136,8.136,0,0,1-2.477,3.828,6.351,6.351,0,0,1-4.164,1.352,6.286,6.286,0,0,1-5.2-2.375Q478.243,24.156,478.243,17.7Zm2.891,0q0,5.641,1.32,7.508a3.772,3.772,0,0,0,6.516-.008q1.32-1.875,1.32-7.5,0-5.656-1.32-7.516a3.919,3.919,0,0,0-3.289-1.859,3.6,3.6,0,0,0-3.094,1.641Q481.134,12.062,481.134,17.7ZM510.661,26.3V29H495.52a4.975,4.975,0,0,1,.328-1.953A10.332,10.332,0,0,1,497.7,24a29.01,29.01,0,0,1,3.68-3.469,31.193,31.193,0,0,0,5.047-4.852,5.809,5.809,0,0,0,1.313-3.383,3.759,3.759,0,0,0-1.2-2.82,4.312,4.312,0,0,0-3.117-1.148,4.392,4.392,0,0,0-3.25,1.219,4.611,4.611,0,0,0-1.234,3.375l-2.891-.3a7.115,7.115,0,0,1,2.234-4.93,7.622,7.622,0,0,1,5.2-1.7,7.26,7.26,0,0,1,5.219,1.828,6,6,0,0,1,1.922,4.531,6.872,6.872,0,0,1-.562,2.7,10.49,10.49,0,0,1-1.867,2.8,45.485,45.485,0,0,1-4.336,4.031q-2.531,2.125-3.25,2.883a9.249,9.249,0,0,0-1.187,1.523Zm2.871-3.344,2.813-.375a6.2,6.2,0,0,0,1.648,3.445,4.072,4.072,0,0,0,2.836,1.055,4.544,4.544,0,0,0,3.352-1.375,4.64,4.64,0,0,0,1.367-3.406,4.315,4.315,0,0,0-1.266-3.2,4.375,4.375,0,0,0-3.219-1.258,8.075,8.075,0,0,0-1.984.313l.313-2.469a4.3,4.3,0,0,0,.453.031,5.791,5.791,0,0,0,3.234-.937,3.209,3.209,0,0,0,1.438-2.891,3.42,3.42,0,0,0-1.047-2.562,3.72,3.72,0,0,0-2.7-1.016,3.83,3.83,0,0,0-2.734,1.031,5.177,5.177,0,0,0-1.406,3.094l-2.812-.5a7.229,7.229,0,0,1,2.344-4.383A6.775,6.775,0,0,1,520.7,6a7.49,7.49,0,0,1,3.453.8A5.821,5.821,0,0,1,526.571,9a5.639,5.639,0,0,1,.836,2.953,4.835,4.835,0,0,1-.8,2.7,5.441,5.441,0,0,1-2.359,1.938,5.316,5.316,0,0,1,3.156,1.945,5.921,5.921,0,0,1,1.125,3.7,6.761,6.761,0,0,1-2.187,5.086,7.694,7.694,0,0,1-5.531,2.086,7.2,7.2,0,0,1-5.008-1.8A6.948,6.948,0,0,1,513.532,22.953ZM543.728,29,538.65,12.406h2.906l2.641,9.578.984,3.563q.063-.266.859-3.422l2.641-9.719h2.891l2.484,9.625.828,3.172.953-3.2,2.844-9.594h2.734L556.228,29h-2.922l-2.641-9.937-.641-2.828L546.665,29Zm19.9-19.672V6.094h2.813V9.328Zm0,19.672V12.406h2.813V29Zm6.871,0V6.094h2.813V29Zm6.949,0V6.094h2.813V29Zm14.618-4.953,2.781-.437a3.887,3.887,0,0,0,1.3,2.563,4.547,4.547,0,0,0,2.992.891,4.4,4.4,0,0,0,2.875-.789,2.36,2.36,0,0,0,.938-1.852,1.708,1.708,0,0,0-.828-1.5,12.2,12.2,0,0,0-2.875-.953,26.235,26.235,0,0,1-4.289-1.352,4.094,4.094,0,0,1-2.43-3.8,4.273,4.273,0,0,1,.508-2.055,4.554,4.554,0,0,1,1.383-1.57,5.8,5.8,0,0,1,1.789-.82,8.508,8.508,0,0,1,2.43-.336,9.6,9.6,0,0,1,3.43.563,4.665,4.665,0,0,1,2.18,1.523,5.953,5.953,0,0,1,.969,2.57l-2.75.375a3.008,3.008,0,0,0-1.086-2,3.972,3.972,0,0,0-2.539-.719,4.6,4.6,0,0,0-2.766.641,1.865,1.865,0,0,0-.828,1.5,1.552,1.552,0,0,0,.344.984,2.48,2.48,0,0,0,1.078.75q.422.156,2.484.719a34.585,34.585,0,0,1,4.164,1.3,4.225,4.225,0,0,1,1.852,1.477,4.121,4.121,0,0,1,.672,2.406,4.722,4.722,0,0,1-.82,2.648,5.3,5.3,0,0,1-2.367,1.922,8.617,8.617,0,0,1-3.5.68,7.8,7.8,0,0,1-4.93-1.344A6.249,6.249,0,0,1,592.069,24.047ZM609.034,29V6.094h2.813v8.219a6.283,6.283,0,0,1,4.969-2.281,6.7,6.7,0,0,1,3.2.727,4.266,4.266,0,0,1,1.945,2.008,9.256,9.256,0,0,1,.586,3.719V29h-2.812V18.484a4.345,4.345,0,0,0-.914-3.07,3.4,3.4,0,0,0-2.586-.961,4.56,4.56,0,0,0-2.352.648,3.662,3.662,0,0,0-1.57,1.758,8.073,8.073,0,0,0-.469,3.063V29Zm16.59-8.3q0-4.609,2.563-6.828a7.721,7.721,0,0,1,5.219-1.844A7.445,7.445,0,0,1,639,14.273a8.53,8.53,0,0,1,2.172,6.2,10.977,10.977,0,0,1-.961,5.039,6.8,6.8,0,0,1-2.8,2.852,8.143,8.143,0,0,1-4.008,1.016,7.459,7.459,0,0,1-5.633-2.234Q625.624,24.906,625.624,20.7Zm2.891,0a7.068,7.068,0,0,0,1.391,4.773,4.63,4.63,0,0,0,6.984-.008,7.235,7.235,0,0,0,1.391-4.859,6.856,6.856,0,0,0-1.4-4.664,4.637,4.637,0,0,0-6.977-.008A7.036,7.036,0,0,0,628.514,20.7ZM647.37,29l-5.078-16.594H645.2l2.641,9.578.984,3.563q.063-.266.859-3.422l2.641-9.719h2.891l2.484,9.625.828,3.172.953-3.2,2.844-9.594h2.734L659.87,29h-2.922l-2.641-9.937-.641-2.828L650.307,29Zm30.715-6.078,2.766.359a7.173,7.173,0,0,1-2.32,4.477,6.76,6.76,0,0,1-4.586,1.617,7.125,7.125,0,0,1-5.477-2.227,9.034,9.034,0,0,1-2.07-6.383,11.55,11.55,0,0,1,.891-4.7A6.21,6.21,0,0,1,670,13.039a8.043,8.043,0,0,1,3.961-1.008,6.886,6.886,0,0,1,4.422,1.367,6.269,6.269,0,0,1,2.2,3.883l-2.734.422a4.541,4.541,0,0,0-1.383-2.516,3.578,3.578,0,0,0-2.4-.844,4.365,4.365,0,0,0-3.453,1.523q-1.328,1.523-1.328,4.82,0,3.344,1.281,4.859a4.17,4.17,0,0,0,3.344,1.516,3.941,3.941,0,0,0,2.766-1.016A5.04,5.04,0,0,0,678.085,22.922Zm15.84,4.031a10.473,10.473,0,0,1-3.008,1.875,8.691,8.691,0,0,1-3.1.547,6.033,6.033,0,0,1-4.2-1.336,4.409,4.409,0,0,1-1.469-3.414A4.54,4.54,0,0,1,682.7,22.4a4.592,4.592,0,0,1,1.453-1.617,6.833,6.833,0,0,1,2.023-.922,20.1,20.1,0,0,1,2.5-.422,25.707,25.707,0,0,0,5.016-.969q.016-.578.016-.734a3.105,3.105,0,0,0-.8-2.422,4.707,4.707,0,0,0-3.2-.953,4.967,4.967,0,0,0-2.93.7,4.248,4.248,0,0,0-1.4,2.461l-2.75-.375a6.814,6.814,0,0,1,1.234-2.852,5.411,5.411,0,0,1,2.484-1.672,11.081,11.081,0,0,1,3.766-.586,9.967,9.967,0,0,1,3.453.5,4.55,4.55,0,0,1,1.953,1.258,4.424,4.424,0,0,1,.875,1.914,15.836,15.836,0,0,1,.141,2.594v3.75a39.8,39.8,0,0,0,.18,4.961A6.259,6.259,0,0,0,697.425,29h-2.937A5.962,5.962,0,0,1,693.925,26.953Zm-.234-6.281a20.634,20.634,0,0,1-4.594,1.063,10.626,10.626,0,0,0-2.453.563,2.446,2.446,0,0,0-1.109.914A2.486,2.486,0,0,0,686,26.422a3.664,3.664,0,0,0,2.492.75,5.8,5.8,0,0,0,2.891-.711,4.378,4.378,0,0,0,1.859-1.945,6.794,6.794,0,0,0,.453-2.812Zm5.918,3.375,2.781-.437a3.887,3.887,0,0,0,1.3,2.563,4.547,4.547,0,0,0,2.992.891,4.4,4.4,0,0,0,2.875-.789,2.36,2.36,0,0,0,.938-1.852,1.708,1.708,0,0,0-.828-1.5,12.2,12.2,0,0,0-2.875-.953,26.235,26.235,0,0,1-4.289-1.352,4.094,4.094,0,0,1-2.43-3.8,4.273,4.273,0,0,1,.508-2.055,4.554,4.554,0,0,1,1.383-1.57,5.8,5.8,0,0,1,1.789-.82,8.508,8.508,0,0,1,2.43-.336,9.6,9.6,0,0,1,3.43.563,4.665,4.665,0,0,1,2.18,1.523,5.953,5.953,0,0,1,.969,2.57l-2.75.375a3.008,3.008,0,0,0-1.086-2,3.972,3.972,0,0,0-2.539-.719,4.6,4.6,0,0,0-2.766.641,1.865,1.865,0,0,0-.828,1.5,1.552,1.552,0,0,0,.344.984,2.48,2.48,0,0,0,1.078.75q.422.156,2.484.719a34.585,34.585,0,0,1,4.164,1.3,4.225,4.225,0,0,1,1.852,1.477,4.121,4.121,0,0,1,.672,2.406,4.722,4.722,0,0,1-.82,2.648A5.3,5.3,0,0,1,710.2,28.7a8.617,8.617,0,0,1-3.5.68,7.8,7.8,0,0,1-4.93-1.344A6.249,6.249,0,0,1,699.609,24.047Zm28.324-.391,2.906.359a7.091,7.091,0,0,1-2.547,3.953,8.628,8.628,0,0,1-10.523-.836,8.761,8.761,0,0,1-2.133-6.289,9.169,9.169,0,0,1,2.156-6.5,7.3,7.3,0,0,1,5.594-2.312,7.094,7.094,0,0,1,5.438,2.266,9,9,0,0,1,2.109,6.375q0,.25-.016.75H718.543a6.377,6.377,0,0,0,1.547,4.188,4.6,4.6,0,0,0,3.469,1.453,4.3,4.3,0,0,0,2.641-.812A5.393,5.393,0,0,0,727.933,23.656ZM718.7,19.109h9.266a5.622,5.622,0,0,0-1.062-3.141,4.31,4.31,0,0,0-3.484-1.625,4.468,4.468,0,0,0-3.258,1.3A5.133,5.133,0,0,0,718.7,19.109Zm23.118,4.938,2.781-.437a3.887,3.887,0,0,0,1.3,2.563,4.547,4.547,0,0,0,2.992.891,4.4,4.4,0,0,0,2.875-.789,2.36,2.36,0,0,0,.938-1.852,1.708,1.708,0,0,0-.828-1.5A12.2,12.2,0,0,0,749,21.969a26.235,26.235,0,0,1-4.289-1.352,4.094,4.094,0,0,1-2.43-3.8,4.273,4.273,0,0,1,.508-2.055,4.554,4.554,0,0,1,1.383-1.57,5.8,5.8,0,0,1,1.789-.82,8.508,8.508,0,0,1,2.43-.336,9.6,9.6,0,0,1,3.43.563A4.665,4.665,0,0,1,754,14.117a5.953,5.953,0,0,1,.969,2.57l-2.75.375a3.008,3.008,0,0,0-1.086-2,3.972,3.972,0,0,0-2.539-.719,4.6,4.6,0,0,0-2.766.641,1.865,1.865,0,0,0-.828,1.5,1.552,1.552,0,0,0,.344.984,2.48,2.48,0,0,0,1.078.75q.422.156,2.484.719a34.585,34.585,0,0,1,4.164,1.3,4.225,4.225,0,0,1,1.852,1.477,4.121,4.121,0,0,1,.672,2.406,4.722,4.722,0,0,1-.82,2.648A5.3,5.3,0,0,1,752.41,28.7a8.617,8.617,0,0,1-3.5.68,7.8,7.8,0,0,1-4.93-1.344A6.249,6.249,0,0,1,741.816,24.047Zm23.106,2.438.406,2.484a10.433,10.433,0,0,1-2.125.25,4.811,4.811,0,0,1-2.375-.484,2.712,2.712,0,0,1-1.187-1.273,10.069,10.069,0,0,1-.344-3.32V14.594h-2.062V12.406H759.3V8.3l2.8-1.687v5.8h2.828v2.188h-2.828v9.7a4.9,4.9,0,0,0,.148,1.547,1.171,1.171,0,0,0,.484.547,1.871,1.871,0,0,0,.961.2A9.149,9.149,0,0,0,764.922,26.484ZM778.387,29V26.563a6.074,6.074,0,0,1-5.266,2.813,6.71,6.71,0,0,1-2.742-.562,4.517,4.517,0,0,1-1.891-1.414,5.3,5.3,0,0,1-.867-2.086,14.283,14.283,0,0,1-.172-2.625V12.406h2.813v9.2a16.4,16.4,0,0,0,.172,2.969,2.933,2.933,0,0,0,1.125,1.742,3.486,3.486,0,0,0,2.125.633,4.629,4.629,0,0,0,2.375-.648,3.606,3.606,0,0,0,1.57-1.766,8.859,8.859,0,0,0,.461-3.242V12.406H780.9V29Zm17.528,0V26.906a5.161,5.161,0,0,1-4.641,2.469,6.507,6.507,0,0,1-3.648-1.094,7.193,7.193,0,0,1-2.578-3.055,10.558,10.558,0,0,1-.914-4.508,11.8,11.8,0,0,1,.828-4.508,6.531,6.531,0,0,1,2.484-3.1,6.642,6.642,0,0,1,3.7-1.078,5.534,5.534,0,0,1,4.578,2.281V6.094h2.8V29Zm-8.891-8.281a7.207,7.207,0,0,0,1.344,4.766,4.052,4.052,0,0,0,3.172,1.578,3.978,3.978,0,0,0,3.133-1.508,6.952,6.952,0,0,0,1.289-4.6,7.8,7.8,0,0,0-1.312-5,4.037,4.037,0,0,0-3.234-1.594,3.9,3.9,0,0,0-3.133,1.531A7.558,7.558,0,0,0,787.024,20.719Zm27.121,2.938,2.906.359a7.091,7.091,0,0,1-2.547,3.953,8.628,8.628,0,0,1-10.523-.836,8.761,8.761,0,0,1-2.133-6.289,9.169,9.169,0,0,1,2.156-6.5,7.3,7.3,0,0,1,5.594-2.312,7.094,7.094,0,0,1,5.438,2.266,9,9,0,0,1,2.109,6.375q0,.25-.016.75H804.755a6.377,6.377,0,0,0,1.547,4.188,4.6,4.6,0,0,0,3.469,1.453,4.3,4.3,0,0,0,2.641-.812A5.393,5.393,0,0,0,814.145,23.656Zm-9.234-4.547h9.266a5.622,5.622,0,0,0-1.062-3.141,4.31,4.31,0,0,0-3.484-1.625,4.468,4.468,0,0,0-3.258,1.3A5.133,5.133,0,0,0,804.911,19.109ZM820.423,29V12.406h2.531v2.359a5.965,5.965,0,0,1,5.281-2.734,6.928,6.928,0,0,1,2.758.539,4.338,4.338,0,0,1,1.883,1.414,5.428,5.428,0,0,1,.875,2.078,16.1,16.1,0,0,1,.156,2.734V29h-2.812V18.906a7.577,7.577,0,0,0-.328-2.57,2.7,2.7,0,0,0-1.164-1.359,3.7,3.7,0,0,0-1.961-.508,4.557,4.557,0,0,0-3.1,1.141q-1.3,1.141-1.3,4.328V29ZM844.2,26.484l.406,2.484a10.433,10.433,0,0,1-2.125.25,4.811,4.811,0,0,1-2.375-.484,2.712,2.712,0,0,1-1.187-1.273,10.069,10.069,0,0,1-.344-3.32V14.594h-2.062V12.406h2.063V8.3l2.8-1.687v5.8H844.2v2.188h-2.828v9.7a4.9,4.9,0,0,0,.148,1.547,1.171,1.171,0,0,0,.484.547,1.871,1.871,0,0,0,.961.2A9.149,9.149,0,0,0,844.2,26.484Zm11.321,8.875V12.406h2.563v2.156a6.316,6.316,0,0,1,2.047-1.9,5.624,5.624,0,0,1,2.766-.633,6.557,6.557,0,0,1,3.75,1.094,6.713,6.713,0,0,1,2.453,3.086,11.268,11.268,0,0,1,.828,4.367,11.092,11.092,0,0,1-.914,4.586,6.891,6.891,0,0,1-2.656,3.125,6.82,6.82,0,0,1-3.664,1.086,5.293,5.293,0,0,1-2.523-.594,5.747,5.747,0,0,1-1.836-1.5v8.078ZM858.068,20.8a7.218,7.218,0,0,0,1.3,4.734,3.977,3.977,0,0,0,3.141,1.531,4.066,4.066,0,0,0,3.211-1.586,7.524,7.524,0,0,0,1.336-4.914,7.331,7.331,0,0,0-1.3-4.75,3.928,3.928,0,0,0-3.117-1.578,4.05,4.05,0,0,0-3.18,1.68A7.515,7.515,0,0,0,858.068,20.8ZM873.127,29V12.406h2.531v2.516a6.864,6.864,0,0,1,1.789-2.328,3.123,3.123,0,0,1,1.8-.562,5.486,5.486,0,0,1,2.891.906l-.969,2.609a4.024,4.024,0,0,0-2.062-.609,2.678,2.678,0,0,0-1.656.555,3,3,0,0,0-1.047,1.539,10.955,10.955,0,0,0-.469,3.281V29Zm9.481-8.3q0-4.609,2.563-6.828a7.721,7.721,0,0,1,5.219-1.844,7.445,7.445,0,0,1,5.594,2.242,8.53,8.53,0,0,1,2.172,6.2,10.977,10.977,0,0,1-.961,5.039,6.8,6.8,0,0,1-2.8,2.852,8.143,8.143,0,0,1-4.008,1.016,7.459,7.459,0,0,1-5.633-2.234Q882.607,24.906,882.607,20.7Zm2.891,0a7.068,7.068,0,0,0,1.391,4.773,4.63,4.63,0,0,0,6.984-.008,7.235,7.235,0,0,0,1.391-4.859,6.856,6.856,0,0,0-1.4-4.664,4.637,4.637,0,0,0-6.977-.008A7.036,7.036,0,0,0,885.5,20.7ZM901.275,9.359V6.094h2.813V9.359Zm-3.562,26.078.531-2.391a5.653,5.653,0,0,0,1.328.219,1.49,1.49,0,0,0,1.281-.57,5.822,5.822,0,0,0,.422-2.852V12.406h2.813v17.5a8.208,8.208,0,0,1-.8,4.266,3.719,3.719,0,0,1-3.375,1.563A8.148,8.148,0,0,1,897.713,35.438ZM919.6,23.656l2.906.359a7.091,7.091,0,0,1-2.547,3.953,8.628,8.628,0,0,1-10.523-.836,8.761,8.761,0,0,1-2.133-6.289,9.169,9.169,0,0,1,2.156-6.5,7.3,7.3,0,0,1,5.594-2.312A7.094,7.094,0,0,1,920.49,14.3a9,9,0,0,1,2.109,6.375q0,.25-.016.75H910.209a6.377,6.377,0,0,0,1.547,4.188,4.6,4.6,0,0,0,3.469,1.453,4.3,4.3,0,0,0,2.641-.812A5.393,5.393,0,0,0,919.6,23.656Zm-9.234-4.547h9.266a5.622,5.622,0,0,0-1.062-3.141,4.31,4.31,0,0,0-3.484-1.625,4.468,4.468,0,0,0-3.258,1.3A5.133,5.133,0,0,0,910.365,19.109Zm26.34,3.813,2.766.359a7.173,7.173,0,0,1-2.32,4.477,6.76,6.76,0,0,1-4.586,1.617,7.125,7.125,0,0,1-5.477-2.227,9.034,9.034,0,0,1-2.07-6.383,11.55,11.55,0,0,1,.891-4.7,6.21,6.21,0,0,1,2.711-3.023,8.043,8.043,0,0,1,3.961-1.008A6.886,6.886,0,0,1,937,13.4a6.269,6.269,0,0,1,2.2,3.883l-2.734.422a4.541,4.541,0,0,0-1.383-2.516,3.578,3.578,0,0,0-2.4-.844,4.365,4.365,0,0,0-3.453,1.523q-1.328,1.523-1.328,4.82,0,3.344,1.281,4.859a4.17,4.17,0,0,0,3.344,1.516,3.941,3.941,0,0,0,2.766-1.016A5.04,5.04,0,0,0,936.706,22.922Zm11.153,3.563.406,2.484a10.433,10.433,0,0,1-2.125.25,4.811,4.811,0,0,1-2.375-.484,2.712,2.712,0,0,1-1.187-1.273,10.069,10.069,0,0,1-.344-3.32V14.594h-2.062V12.406h2.063V8.3l2.8-1.687v5.8h2.828v2.188H945.03v9.7a4.9,4.9,0,0,0,.148,1.547,1.171,1.171,0,0,0,.484.547,1.871,1.871,0,0,0,.961.2A9.149,9.149,0,0,0,947.858,26.484Zm1.465-2.437,2.781-.437a3.887,3.887,0,0,0,1.3,2.563,4.547,4.547,0,0,0,2.992.891,4.4,4.4,0,0,0,2.875-.789,2.36,2.36,0,0,0,.938-1.852,1.708,1.708,0,0,0-.828-1.5,12.2,12.2,0,0,0-2.875-.953,26.235,26.235,0,0,1-4.289-1.352,4.094,4.094,0,0,1-2.43-3.8,4.273,4.273,0,0,1,.508-2.055,4.554,4.554,0,0,1,1.383-1.57,5.8,5.8,0,0,1,1.789-.82,8.508,8.508,0,0,1,2.43-.336,9.6,9.6,0,0,1,3.43.563,4.665,4.665,0,0,1,2.18,1.523,5.953,5.953,0,0,1,.969,2.57l-2.75.375a3.008,3.008,0,0,0-1.086-2,3.972,3.972,0,0,0-2.539-.719,4.6,4.6,0,0,0-2.766.641,1.865,1.865,0,0,0-.828,1.5,1.552,1.552,0,0,0,.344.984,2.48,2.48,0,0,0,1.078.75q.422.156,2.484.719a34.585,34.585,0,0,1,4.164,1.3,4.225,4.225,0,0,1,1.852,1.477,4.121,4.121,0,0,1,.672,2.406,4.722,4.722,0,0,1-.82,2.648,5.3,5.3,0,0,1-2.367,1.922,8.617,8.617,0,0,1-3.5.68,7.8,7.8,0,0,1-4.93-1.344A6.249,6.249,0,0,1,949.323,24.047Zm36.524,2.906a10.473,10.473,0,0,1-3.008,1.875,8.691,8.691,0,0,1-3.1.547,6.033,6.033,0,0,1-4.2-1.336,4.409,4.409,0,0,1-1.469-3.414,4.54,4.54,0,0,1,.555-2.227,4.592,4.592,0,0,1,1.453-1.617,6.833,6.833,0,0,1,2.023-.922,20.1,20.1,0,0,1,2.5-.422,25.707,25.707,0,0,0,5.016-.969q.016-.578.016-.734a3.105,3.105,0,0,0-.8-2.422,4.707,4.707,0,0,0-3.2-.953,4.967,4.967,0,0,0-2.93.7,4.248,4.248,0,0,0-1.4,2.461l-2.75-.375a6.814,6.814,0,0,1,1.234-2.852,5.411,5.411,0,0,1,2.484-1.672,11.081,11.081,0,0,1,3.766-.586,9.967,9.967,0,0,1,3.453.5,4.55,4.55,0,0,1,1.953,1.258,4.424,4.424,0,0,1,.875,1.914,15.836,15.836,0,0,1,.141,2.594v3.75a39.8,39.8,0,0,0,.18,4.961A6.259,6.259,0,0,0,989.347,29h-2.937A5.962,5.962,0,0,1,985.847,26.953Zm-.234-6.281a20.634,20.634,0,0,1-4.594,1.063,10.626,10.626,0,0,0-2.453.563,2.446,2.446,0,0,0-1.109.914,2.486,2.486,0,0,0,.461,3.211,3.664,3.664,0,0,0,2.492.75,5.8,5.8,0,0,0,2.891-.711,4.378,4.378,0,0,0,1.859-1.945,6.794,6.794,0,0,0,.453-2.812ZM992.656,29V12.406h2.531v2.359a5.965,5.965,0,0,1,5.281-2.734,6.928,6.928,0,0,1,2.758.539,4.338,4.338,0,0,1,1.883,1.414,5.428,5.428,0,0,1,.875,2.078,16.1,16.1,0,0,1,.156,2.734V29h-2.812V18.906a7.577,7.577,0,0,0-.328-2.57,2.7,2.7,0,0,0-1.164-1.359,3.7,3.7,0,0,0-1.961-.508,4.557,4.557,0,0,0-3.1,1.141q-1.3,1.141-1.3,4.328V29Zm28.4,0V26.906a5.161,5.161,0,0,1-4.641,2.469,6.507,6.507,0,0,1-3.648-1.094,7.193,7.193,0,0,1-2.578-3.055,10.558,10.558,0,0,1-.914-4.508,11.8,11.8,0,0,1,.828-4.508,6.531,6.531,0,0,1,2.484-3.1,6.642,6.642,0,0,1,3.7-1.078,5.534,5.534,0,0,1,4.578,2.281V6.094h2.8V29Zm-8.891-8.281a7.207,7.207,0,0,0,1.344,4.766,4.052,4.052,0,0,0,3.172,1.578,3.978,3.978,0,0,0,3.133-1.508,6.952,6.952,0,0,0,1.289-4.6,7.8,7.8,0,0,0-1.312-5,4.037,4.037,0,0,0-3.234-1.594,3.9,3.9,0,0,0-3.133,1.531A7.558,7.558,0,0,0,1012.168,20.719ZM186.84,68.953a10.473,10.473,0,0,1-3.008,1.875,8.691,8.691,0,0,1-3.1.547,6.033,6.033,0,0,1-4.2-1.336,4.409,4.409,0,0,1-1.469-3.414,4.541,4.541,0,0,1,.555-2.227,4.592,4.592,0,0,1,1.453-1.617,6.833,6.833,0,0,1,2.023-.922,20.1,20.1,0,0,1,2.5-.422,25.707,25.707,0,0,0,5.016-.969q.016-.578.016-.734a3.105,3.105,0,0,0-.8-2.422,4.707,4.707,0,0,0-3.2-.953,4.967,4.967,0,0,0-2.93.7,4.248,4.248,0,0,0-1.4,2.461l-2.75-.375a6.814,6.814,0,0,1,1.234-2.852,5.411,5.411,0,0,1,2.484-1.672,11.081,11.081,0,0,1,3.766-.586,9.967,9.967,0,0,1,3.453.5,4.55,4.55,0,0,1,1.953,1.258,4.424,4.424,0,0,1,.875,1.914,15.836,15.836,0,0,1,.141,2.594v3.75a39.8,39.8,0,0,0,.18,4.961A6.259,6.259,0,0,0,190.34,71H187.4A5.963,5.963,0,0,1,186.84,68.953Zm-.234-6.281a20.634,20.634,0,0,1-4.594,1.063,10.626,10.626,0,0,0-2.453.563,2.446,2.446,0,0,0-1.109.914,2.486,2.486,0,0,0,.461,3.211,3.664,3.664,0,0,0,2.492.75,5.8,5.8,0,0,0,2.891-.711,4.378,4.378,0,0,0,1.859-1.945,6.794,6.794,0,0,0,.453-2.812Zm17.871,2.25,2.766.359a7.173,7.173,0,0,1-2.32,4.477,6.76,6.76,0,0,1-4.586,1.617,7.125,7.125,0,0,1-5.477-2.227,9.034,9.034,0,0,1-2.07-6.383,11.55,11.55,0,0,1,.891-4.7,6.21,6.21,0,0,1,2.711-3.023,8.043,8.043,0,0,1,3.961-1.008,6.886,6.886,0,0,1,4.422,1.367,6.269,6.269,0,0,1,2.2,3.883l-2.734.422a4.541,4.541,0,0,0-1.383-2.516,3.578,3.578,0,0,0-2.4-.844,4.365,4.365,0,0,0-3.453,1.523q-1.328,1.523-1.328,4.82,0,3.344,1.281,4.859a4.17,4.17,0,0,0,3.344,1.516,3.941,3.941,0,0,0,2.766-1.016A5.04,5.04,0,0,0,204.476,64.922Zm11.152,3.563.406,2.484a10.433,10.433,0,0,1-2.125.25,4.811,4.811,0,0,1-2.375-.484,2.712,2.712,0,0,1-1.187-1.273,10.07,10.07,0,0,1-.344-3.32V56.594h-2.062V54.406H210V50.3l2.8-1.687v5.8h2.828v2.188H212.8v9.7a4.9,4.9,0,0,0,.148,1.547,1.171,1.171,0,0,0,.484.547,1.871,1.871,0,0,0,.961.2A9.15,9.15,0,0,0,215.629,68.484Zm2.606-17.156V48.094h2.813v3.234Zm0,19.672V54.406h2.813V71Zm11.543,0-6.312-16.594h2.969L230,64.344q.578,1.609,1.063,3.344.375-1.312,1.047-3.156l3.688-10.125h2.891L232.4,71Zm11.246-19.672V48.094h2.813v3.234Zm0,19.672V54.406h2.813V71ZM254.1,68.484l.406,2.484a10.433,10.433,0,0,1-2.125.25A4.811,4.811,0,0,1,250,70.734a2.712,2.712,0,0,1-1.187-1.273,10.07,10.07,0,0,1-.344-3.32V56.594h-2.062V54.406h2.063V50.3l2.8-1.687v5.8H254.1v2.188H251.27v9.7a4.9,4.9,0,0,0,.148,1.547,1.171,1.171,0,0,0,.484.547,1.871,1.871,0,0,0,.961.2A9.15,9.15,0,0,0,254.1,68.484ZM256.7,51.328V48.094h2.813v3.234ZM256.7,71V54.406h2.813V71ZM275,65.656l2.906.359a7.091,7.091,0,0,1-2.547,3.953,8.628,8.628,0,0,1-10.523-.836,8.761,8.761,0,0,1-2.133-6.289,9.169,9.169,0,0,1,2.156-6.5,7.3,7.3,0,0,1,5.594-2.312,7.094,7.094,0,0,1,5.438,2.266A9,9,0,0,1,278,62.672q0,.25-.016.75H265.606a6.377,6.377,0,0,0,1.547,4.188,4.6,4.6,0,0,0,3.469,1.453,4.3,4.3,0,0,0,2.641-.812A5.394,5.394,0,0,0,275,65.656Zm-9.234-4.547h9.266a5.621,5.621,0,0,0-1.062-3.141,4.31,4.31,0,0,0-3.484-1.625,4.468,4.468,0,0,0-3.258,1.3A5.133,5.133,0,0,0,265.763,61.109Zm14.387,4.938,2.781-.437a3.887,3.887,0,0,0,1.3,2.563,4.547,4.547,0,0,0,2.992.891,4.4,4.4,0,0,0,2.875-.789,2.36,2.36,0,0,0,.938-1.852,1.708,1.708,0,0,0-.828-1.5,12.2,12.2,0,0,0-2.875-.953,26.235,26.235,0,0,1-4.289-1.352,4.094,4.094,0,0,1-2.43-3.8,4.274,4.274,0,0,1,.508-2.055,4.553,4.553,0,0,1,1.383-1.57,5.8,5.8,0,0,1,1.789-.82,8.508,8.508,0,0,1,2.43-.336,9.6,9.6,0,0,1,3.43.563,4.665,4.665,0,0,1,2.18,1.523,5.953,5.953,0,0,1,.969,2.57l-2.75.375a3.008,3.008,0,0,0-1.086-2,3.972,3.972,0,0,0-2.539-.719,4.6,4.6,0,0,0-2.766.641,1.865,1.865,0,0,0-.828,1.5,1.553,1.553,0,0,0,.344.984,2.48,2.48,0,0,0,1.078.75q.422.156,2.484.719a34.585,34.585,0,0,1,4.164,1.3,4.225,4.225,0,0,1,1.852,1.477,4.122,4.122,0,0,1,.672,2.406,4.722,4.722,0,0,1-.82,2.648,5.3,5.3,0,0,1-2.367,1.922,8.616,8.616,0,0,1-3.5.68,7.8,7.8,0,0,1-4.93-1.344A6.249,6.249,0,0,1,280.15,66.047ZM306.517,71V56.594h-2.484V54.406h2.484V52.641a7.731,7.731,0,0,1,.3-2.484,3.6,3.6,0,0,1,1.43-1.773,5.152,5.152,0,0,1,2.867-.68,13.767,13.767,0,0,1,2.625.281l-.422,2.453a9.438,9.438,0,0,0-1.656-.156,2.465,2.465,0,0,0-1.812.547,2.964,2.964,0,0,0-.531,2.047v1.531h3.234v2.188h-3.234V71Zm8.028,0V54.406h2.531v2.516a6.865,6.865,0,0,1,1.789-2.328,3.123,3.123,0,0,1,1.8-.562,5.486,5.486,0,0,1,2.891.906l-.969,2.609a4.024,4.024,0,0,0-2.062-.609,2.678,2.678,0,0,0-1.656.555,3,3,0,0,0-1.047,1.539,10.955,10.955,0,0,0-.469,3.281V71Zm9.481-8.3q0-4.609,2.563-6.828a7.721,7.721,0,0,1,5.219-1.844,7.445,7.445,0,0,1,5.594,2.242,8.53,8.53,0,0,1,2.172,6.2,10.978,10.978,0,0,1-.961,5.039,6.8,6.8,0,0,1-2.8,2.852,8.143,8.143,0,0,1-4.008,1.016,7.459,7.459,0,0,1-5.633-2.234Q324.025,66.906,324.025,62.7Zm2.891,0a7.068,7.068,0,0,0,1.391,4.773,4.63,4.63,0,0,0,6.984-.008,7.235,7.235,0,0,0,1.391-4.859,6.856,6.856,0,0,0-1.4-4.664,4.637,4.637,0,0,0-6.977-.008A7.036,7.036,0,0,0,326.916,62.7ZM342.709,71V54.406h2.516v2.328a5.914,5.914,0,0,1,2.078-1.961,5.839,5.839,0,0,1,2.953-.742,5.459,5.459,0,0,1,3.023.766,4.1,4.1,0,0,1,1.664,2.141,5.957,5.957,0,0,1,5.125-2.906,5.051,5.051,0,0,1,3.8,1.367,5.843,5.843,0,0,1,1.328,4.211V71h-2.8V60.547a7.7,7.7,0,0,0-.273-2.43,2.353,2.353,0,0,0-.992-1.2,3.1,3.1,0,0,0-1.687-.453,3.927,3.927,0,0,0-2.906,1.164,5.127,5.127,0,0,0-1.156,3.727V71h-2.812V60.219a4.744,4.744,0,0,0-.687-2.812,2.6,2.6,0,0,0-2.25-.937,4.087,4.087,0,0,0-2.2.625,3.545,3.545,0,0,0-1.461,1.828,10.29,10.29,0,0,0-.453,3.469V71Zm41.367-2.516.406,2.484a10.432,10.432,0,0,1-2.125.25,4.811,4.811,0,0,1-2.375-.484,2.712,2.712,0,0,1-1.187-1.273,10.07,10.07,0,0,1-.344-3.32V56.594h-2.062V54.406h2.063V50.3l2.8-1.687v5.8h2.828v2.188h-2.828v9.7a4.9,4.9,0,0,0,.148,1.547,1.171,1.171,0,0,0,.484.547,1.871,1.871,0,0,0,.961.2A9.149,9.149,0,0,0,384.076,68.484ZM386.666,71V48.094h2.813v8.219a6.283,6.283,0,0,1,4.969-2.281,6.7,6.7,0,0,1,3.2.727,4.266,4.266,0,0,1,1.945,2.008,9.256,9.256,0,0,1,.586,3.719V71H397.37V60.484a4.345,4.345,0,0,0-.914-3.07,3.4,3.4,0,0,0-2.586-.961,4.56,4.56,0,0,0-2.352.648,3.662,3.662,0,0,0-1.57,1.758,8.073,8.073,0,0,0-.469,3.063V71Zm29-5.344,2.906.359a7.091,7.091,0,0,1-2.547,3.953,8.628,8.628,0,0,1-10.523-.836,8.761,8.761,0,0,1-2.133-6.289,9.169,9.169,0,0,1,2.156-6.5,7.3,7.3,0,0,1,5.594-2.312,7.094,7.094,0,0,1,5.438,2.266,9,9,0,0,1,2.109,6.375q0,.25-.016.75H406.272a6.377,6.377,0,0,0,1.547,4.188,4.6,4.6,0,0,0,3.469,1.453,4.3,4.3,0,0,0,2.641-.812A5.394,5.394,0,0,0,415.663,65.656Zm-9.234-4.547h9.266a5.621,5.621,0,0,0-1.062-3.141,4.31,4.31,0,0,0-3.484-1.625,4.468,4.468,0,0,0-3.258,1.3A5.133,5.133,0,0,0,406.428,61.109ZM431.546,71V48.094h3.031V71Zm7.856,0V54.406h2.531v2.359a5.965,5.965,0,0,1,5.281-2.734,6.928,6.928,0,0,1,2.758.539,4.338,4.338,0,0,1,1.883,1.414,5.428,5.428,0,0,1,.875,2.078,16.106,16.106,0,0,1,.156,2.734V71h-2.812V60.906a7.577,7.577,0,0,0-.328-2.57,2.7,2.7,0,0,0-1.164-1.359,3.7,3.7,0,0,0-1.961-.508,4.557,4.557,0,0,0-3.1,1.141q-1.3,1.141-1.3,4.328V71Zm23.777-2.516.406,2.484a10.432,10.432,0,0,1-2.125.25,4.811,4.811,0,0,1-2.375-.484,2.712,2.712,0,0,1-1.187-1.273,10.07,10.07,0,0,1-.344-3.32V56.594h-2.062V54.406h2.063V50.3l2.8-1.687v5.8h2.828v2.188h-2.828v9.7a4.9,4.9,0,0,0,.148,1.547,1.171,1.171,0,0,0,.484.547,1.871,1.871,0,0,0,.961.2A9.149,9.149,0,0,0,463.179,68.484Zm13.949-2.828,2.906.359a7.091,7.091,0,0,1-2.547,3.953,8.628,8.628,0,0,1-10.523-.836,8.761,8.761,0,0,1-2.133-6.289,9.169,9.169,0,0,1,2.156-6.5,7.3,7.3,0,0,1,5.594-2.312,7.094,7.094,0,0,1,5.438,2.266,9,9,0,0,1,2.109,6.375q0,.25-.016.75H467.738a6.377,6.377,0,0,0,1.547,4.188,4.6,4.6,0,0,0,3.469,1.453,4.3,4.3,0,0,0,2.641-.812A5.394,5.394,0,0,0,477.128,65.656Zm-9.234-4.547h9.266a5.621,5.621,0,0,0-1.062-3.141,4.31,4.31,0,0,0-3.484-1.625,4.468,4.468,0,0,0-3.258,1.3A5.133,5.133,0,0,0,467.894,61.109ZM483.375,71V54.406h2.531v2.516a6.865,6.865,0,0,1,1.789-2.328,3.123,3.123,0,0,1,1.8-.562,5.486,5.486,0,0,1,2.891.906l-.969,2.609a4.024,4.024,0,0,0-2.062-.609,2.678,2.678,0,0,0-1.656.555,3,3,0,0,0-1.047,1.539,10.955,10.955,0,0,0-.469,3.281V71Zm21.356-2.047a10.473,10.473,0,0,1-3.008,1.875,8.691,8.691,0,0,1-3.1.547,6.033,6.033,0,0,1-4.2-1.336,4.41,4.41,0,0,1-1.469-3.414A4.541,4.541,0,0,1,493.5,64.4a4.592,4.592,0,0,1,1.453-1.617,6.833,6.833,0,0,1,2.023-.922,20.1,20.1,0,0,1,2.5-.422,25.706,25.706,0,0,0,5.016-.969q.016-.578.016-.734a3.105,3.105,0,0,0-.8-2.422,4.707,4.707,0,0,0-3.2-.953,4.967,4.967,0,0,0-2.93.7,4.248,4.248,0,0,0-1.4,2.461l-2.75-.375a6.814,6.814,0,0,1,1.234-2.852,5.41,5.41,0,0,1,2.484-1.672,11.081,11.081,0,0,1,3.766-.586,9.967,9.967,0,0,1,3.453.5,4.55,4.55,0,0,1,1.953,1.258A4.424,4.424,0,0,1,507.2,57.7a15.836,15.836,0,0,1,.141,2.594v3.75a39.8,39.8,0,0,0,.18,4.961A6.259,6.259,0,0,0,508.23,71h-2.937A5.964,5.964,0,0,1,504.73,68.953Zm-.234-6.281a20.635,20.635,0,0,1-4.594,1.063,10.625,10.625,0,0,0-2.453.563,2.446,2.446,0,0,0-1.109.914,2.486,2.486,0,0,0,.461,3.211,3.664,3.664,0,0,0,2.492.75,5.8,5.8,0,0,0,2.891-.711,4.378,4.378,0,0,0,1.859-1.945A6.794,6.794,0,0,0,504.5,63.7Zm17.871,2.25,2.766.359a7.173,7.173,0,0,1-2.32,4.477,6.76,6.76,0,0,1-4.586,1.617,7.125,7.125,0,0,1-5.477-2.227,9.034,9.034,0,0,1-2.07-6.383,11.55,11.55,0,0,1,.891-4.7,6.21,6.21,0,0,1,2.711-3.023,8.043,8.043,0,0,1,3.961-1.008,6.886,6.886,0,0,1,4.422,1.367,6.269,6.269,0,0,1,2.2,3.883l-2.734.422a4.541,4.541,0,0,0-1.383-2.516,3.578,3.578,0,0,0-2.4-.844,4.365,4.365,0,0,0-3.453,1.523q-1.328,1.523-1.328,4.82,0,3.344,1.281,4.859a4.17,4.17,0,0,0,3.344,1.516,3.941,3.941,0,0,0,2.766-1.016A5.04,5.04,0,0,0,522.367,64.922Zm11.153,3.563.406,2.484a10.433,10.433,0,0,1-2.125.25,4.811,4.811,0,0,1-2.375-.484,2.712,2.712,0,0,1-1.187-1.273,10.069,10.069,0,0,1-.344-3.32V56.594h-2.062V54.406h2.063V50.3l2.8-1.687v5.8h2.828v2.188h-2.828v9.7a4.9,4.9,0,0,0,.148,1.547,1.171,1.171,0,0,0,.484.547,1.871,1.871,0,0,0,.961.2A9.15,9.15,0,0,0,533.52,68.484Zm2.606-17.156V48.094h2.813v3.234Zm0,19.672V54.406h2.813V71Zm11.543,0-6.312-16.594h2.969l3.563,9.938q.578,1.609,1.063,3.344.375-1.312,1.047-3.156l3.688-10.125h2.891L550.293,71Zm22.59-5.344,2.906.359a7.091,7.091,0,0,1-2.547,3.953,8.628,8.628,0,0,1-10.523-.836,8.761,8.761,0,0,1-2.133-6.289,9.169,9.169,0,0,1,2.156-6.5,7.3,7.3,0,0,1,5.594-2.312,7.094,7.094,0,0,1,5.438,2.266,9,9,0,0,1,2.109,6.375q0,.25-.016.75H560.868a6.377,6.377,0,0,0,1.547,4.188,4.6,4.6,0,0,0,3.469,1.453,4.3,4.3,0,0,0,2.641-.812A5.393,5.393,0,0,0,570.258,65.656Zm-9.234-4.547h9.266a5.622,5.622,0,0,0-1.062-3.141,4.31,4.31,0,0,0-3.484-1.625,4.468,4.468,0,0,0-3.258,1.3A5.133,5.133,0,0,0,561.024,61.109ZM585.532,71V48.094h4.563l5.422,16.219q.75,2.266,1.094,3.391.391-1.25,1.219-3.672l5.484-15.937h4.078V71h-2.922V51.828L597.813,71h-2.734l-6.625-19.5V71Zm37.59-5.344,2.906.359a7.091,7.091,0,0,1-2.547,3.953,8.628,8.628,0,0,1-10.523-.836,8.761,8.761,0,0,1-2.133-6.289,9.169,9.169,0,0,1,2.156-6.5,7.3,7.3,0,0,1,5.594-2.312,7.094,7.094,0,0,1,5.438,2.266,9,9,0,0,1,2.109,6.375q0,.25-.016.75H613.731a6.377,6.377,0,0,0,1.547,4.188,4.6,4.6,0,0,0,3.469,1.453,4.3,4.3,0,0,0,2.641-.812A5.393,5.393,0,0,0,623.122,65.656Zm-9.234-4.547h9.266a5.622,5.622,0,0,0-1.062-3.141,4.31,4.31,0,0,0-3.484-1.625,4.468,4.468,0,0,0-3.258,1.3A5.133,5.133,0,0,0,613.888,61.109ZM640.165,71V68.906a5.161,5.161,0,0,1-4.641,2.469,6.507,6.507,0,0,1-3.648-1.094,7.193,7.193,0,0,1-2.578-3.055,10.558,10.558,0,0,1-.914-4.508,11.8,11.8,0,0,1,.828-4.508,6.531,6.531,0,0,1,2.484-3.1,6.642,6.642,0,0,1,3.7-1.078,5.534,5.534,0,0,1,4.578,2.281V48.094h2.8V71Zm-8.891-8.281a7.207,7.207,0,0,0,1.344,4.766,4.052,4.052,0,0,0,3.172,1.578,3.978,3.978,0,0,0,3.133-1.508,6.952,6.952,0,0,0,1.289-4.6,7.8,7.8,0,0,0-1.312-5,4.037,4.037,0,0,0-3.234-1.594,3.9,3.9,0,0,0-3.133,1.531A7.558,7.558,0,0,0,631.274,62.719Zm15.778-11.391V48.094h2.813v3.234Zm0,19.672V54.406h2.813V71Zm17.762-2.047a10.473,10.473,0,0,1-3.008,1.875,8.691,8.691,0,0,1-3.1.547,6.033,6.033,0,0,1-4.2-1.336,4.409,4.409,0,0,1-1.469-3.414,4.54,4.54,0,0,1,.555-2.227,4.592,4.592,0,0,1,1.453-1.617,6.833,6.833,0,0,1,2.023-.922,20.1,20.1,0,0,1,2.5-.422,25.707,25.707,0,0,0,5.016-.969q.016-.578.016-.734a3.105,3.105,0,0,0-.8-2.422,4.707,4.707,0,0,0-3.2-.953,4.967,4.967,0,0,0-2.93.7,4.248,4.248,0,0,0-1.4,2.461l-2.75-.375a6.814,6.814,0,0,1,1.234-2.852,5.411,5.411,0,0,1,2.484-1.672A11.081,11.081,0,0,1,661,54.031a9.967,9.967,0,0,1,3.453.5,4.55,4.55,0,0,1,1.953,1.258,4.424,4.424,0,0,1,.875,1.914,15.836,15.836,0,0,1,.141,2.594v3.75a39.8,39.8,0,0,0,.18,4.961A6.259,6.259,0,0,0,668.314,71h-2.937A5.962,5.962,0,0,1,664.814,68.953Zm-.234-6.281a20.634,20.634,0,0,1-4.594,1.063,10.626,10.626,0,0,0-2.453.563,2.446,2.446,0,0,0-1.109.914,2.486,2.486,0,0,0,.461,3.211,3.664,3.664,0,0,0,2.492.75,5.8,5.8,0,0,0,2.891-.711,4.378,4.378,0,0,0,1.859-1.945,6.794,6.794,0,0,0,.453-2.812ZM680.713,71V48.094H688.6a19.14,19.14,0,0,1,4.078.328,7.758,7.758,0,0,1,3.359,1.641,9.32,9.32,0,0,1,2.711,3.914,15.365,15.365,0,0,1,.9,5.445,16,16,0,0,1-.609,4.625,11.22,11.22,0,0,1-1.562,3.336,8.3,8.3,0,0,1-2.086,2.078,8.5,8.5,0,0,1-2.734,1.148,15.606,15.606,0,0,1-3.68.391Zm3.031-2.7h4.891a11.868,11.868,0,0,0,3.555-.422,5.086,5.086,0,0,0,2.055-1.187,7.226,7.226,0,0,0,1.68-2.9,14.17,14.17,0,0,0,.6-4.414,10.659,10.659,0,0,0-1.18-5.523,5.937,5.937,0,0,0-2.867-2.586,11.851,11.851,0,0,0-3.922-.469h-4.812Zm30.918-2.641,2.906.359a7.091,7.091,0,0,1-2.547,3.953,8.628,8.628,0,0,1-10.523-.836,8.761,8.761,0,0,1-2.133-6.289,9.169,9.169,0,0,1,2.156-6.5,7.3,7.3,0,0,1,5.594-2.312,7.094,7.094,0,0,1,5.438,2.266,9,9,0,0,1,2.109,6.375q0,.25-.016.75H705.271a6.377,6.377,0,0,0,1.547,4.188,4.6,4.6,0,0,0,3.469,1.453,4.3,4.3,0,0,0,2.641-.812A5.393,5.393,0,0,0,714.662,65.656Zm-9.234-4.547h9.266a5.622,5.622,0,0,0-1.062-3.141,4.31,4.31,0,0,0-3.484-1.625,4.468,4.468,0,0,0-3.258,1.3A5.133,5.133,0,0,0,705.428,61.109Zm14.387,4.938,2.781-.437a3.887,3.887,0,0,0,1.3,2.563,4.547,4.547,0,0,0,2.992.891,4.4,4.4,0,0,0,2.875-.789,2.36,2.36,0,0,0,.938-1.852,1.708,1.708,0,0,0-.828-1.5A12.2,12.2,0,0,0,727,63.969a26.235,26.235,0,0,1-4.289-1.352,4.094,4.094,0,0,1-2.43-3.8,4.273,4.273,0,0,1,.508-2.055,4.554,4.554,0,0,1,1.383-1.57,5.8,5.8,0,0,1,1.789-.82,8.508,8.508,0,0,1,2.43-.336,9.6,9.6,0,0,1,3.43.563A4.665,4.665,0,0,1,732,56.117a5.953,5.953,0,0,1,.969,2.57l-2.75.375a3.008,3.008,0,0,0-1.086-2,3.972,3.972,0,0,0-2.539-.719,4.6,4.6,0,0,0-2.766.641,1.865,1.865,0,0,0-.828,1.5,1.552,1.552,0,0,0,.344.984,2.48,2.48,0,0,0,1.078.75q.422.156,2.484.719a34.585,34.585,0,0,1,4.164,1.3,4.225,4.225,0,0,1,1.852,1.477,4.121,4.121,0,0,1,.672,2.406,4.722,4.722,0,0,1-.82,2.648,5.3,5.3,0,0,1-2.367,1.922,8.617,8.617,0,0,1-3.5.68,7.8,7.8,0,0,1-4.93-1.344A6.249,6.249,0,0,1,719.814,66.047ZM736.8,51.328V48.094h2.813v3.234ZM736.8,71V54.406h2.813V71Zm6.418,1.375,2.734.406a2.606,2.606,0,0,0,.953,1.844,4.682,4.682,0,0,0,2.859.781,5.022,5.022,0,0,0,3.016-.781,3.845,3.845,0,0,0,1.438-2.187,17.963,17.963,0,0,0,.2-3.609A5.785,5.785,0,0,1,749.823,71a6.263,6.263,0,0,1-5.3-2.469,9.507,9.507,0,0,1-1.875-5.922,11.021,11.021,0,0,1,.859-4.383,6.875,6.875,0,0,1,2.492-3.1,6.729,6.729,0,0,1,3.836-1.094,5.949,5.949,0,0,1,4.844,2.375v-2h2.594V68.75a13.6,13.6,0,0,1-.789,5.492,5.771,5.771,0,0,1-2.5,2.555,8.664,8.664,0,0,1-4.211.938,7.941,7.941,0,0,1-4.8-1.336A4.517,4.517,0,0,1,743.213,72.375Zm2.328-9.969a7.2,7.2,0,0,0,1.3,4.766,4.278,4.278,0,0,0,6.5.008,6.965,6.965,0,0,0,1.313-4.68,6.8,6.8,0,0,0-1.352-4.594,4.179,4.179,0,0,0-3.258-1.547,4.06,4.06,0,0,0-3.187,1.523A6.765,6.765,0,0,0,745.541,62.406ZM761.366,71V54.406H763.9v2.359a5.965,5.965,0,0,1,5.281-2.734,6.928,6.928,0,0,1,2.758.539,4.338,4.338,0,0,1,1.883,1.414,5.428,5.428,0,0,1,.875,2.078,16.1,16.1,0,0,1,.156,2.734V71h-2.812V60.906a7.577,7.577,0,0,0-.328-2.57,2.7,2.7,0,0,0-1.164-1.359,3.7,3.7,0,0,0-1.961-.508,4.557,4.557,0,0,0-3.1,1.141q-1.3,1.141-1.3,4.328V71Zm26.727,0V48.094h8.641a20.863,20.863,0,0,1,3.484.219,6.9,6.9,0,0,1,2.828,1.07,5.616,5.616,0,0,1,1.836,2.211,7.456,7.456,0,0,1-1.164,8.07q-1.859,2.023-6.719,2.023h-5.875V71Zm3.031-12.016h5.922q2.937,0,4.172-1.094a3.9,3.9,0,0,0,1.234-3.078,4.14,4.14,0,0,0-.727-2.461A3.4,3.4,0,0,0,799.812,51a12.952,12.952,0,0,0-2.828-.2h-5.859ZM808.886,71V54.406h2.531v2.516a6.864,6.864,0,0,1,1.789-2.328,3.123,3.123,0,0,1,1.8-.562,5.486,5.486,0,0,1,2.891.906l-.969,2.609a4.024,4.024,0,0,0-2.062-.609,2.678,2.678,0,0,0-1.656.555,3,3,0,0,0-1.047,1.539,10.955,10.955,0,0,0-.469,3.281V71Zm9.481-8.3q0-4.609,2.563-6.828a7.721,7.721,0,0,1,5.219-1.844,7.445,7.445,0,0,1,5.594,2.242,8.53,8.53,0,0,1,2.172,6.2,10.978,10.978,0,0,1-.961,5.039,6.8,6.8,0,0,1-2.8,2.852,8.143,8.143,0,0,1-4.008,1.016,7.459,7.459,0,0,1-5.633-2.234Q818.367,66.906,818.367,62.7Zm2.891,0a7.068,7.068,0,0,0,1.391,4.773,4.63,4.63,0,0,0,6.984-.008,7.235,7.235,0,0,0,1.391-4.859,6.856,6.856,0,0,0-1.4-4.664,4.637,4.637,0,0,0-6.977-.008A7.036,7.036,0,0,0,821.257,62.7Zm15.277,9.672,2.734.406a2.606,2.606,0,0,0,.953,1.844,4.682,4.682,0,0,0,2.859.781,5.022,5.022,0,0,0,3.016-.781,3.845,3.845,0,0,0,1.438-2.187,17.963,17.963,0,0,0,.2-3.609A5.785,5.785,0,0,1,843.144,71a6.263,6.263,0,0,1-5.3-2.469,9.507,9.507,0,0,1-1.875-5.922,11.021,11.021,0,0,1,.859-4.383,6.875,6.875,0,0,1,2.492-3.1,6.729,6.729,0,0,1,3.836-1.094A5.949,5.949,0,0,1,848,56.406v-2H850.6V68.75a13.6,13.6,0,0,1-.789,5.492,5.771,5.771,0,0,1-2.5,2.555,8.664,8.664,0,0,1-4.211.938,7.941,7.941,0,0,1-4.8-1.336A4.517,4.517,0,0,1,836.535,72.375Zm2.328-9.969a7.2,7.2,0,0,0,1.3,4.766,4.278,4.278,0,0,0,6.5.008,6.965,6.965,0,0,0,1.313-4.68,6.8,6.8,0,0,0-1.352-4.594,4.179,4.179,0,0,0-3.258-1.547,4.06,4.06,0,0,0-3.187,1.523A6.765,6.765,0,0,0,838.863,62.406ZM854.656,71V54.406h2.531v2.516a6.864,6.864,0,0,1,1.789-2.328,3.123,3.123,0,0,1,1.8-.562,5.486,5.486,0,0,1,2.891.906l-.969,2.609a4.024,4.024,0,0,0-2.062-.609,2.678,2.678,0,0,0-1.656.555,3,3,0,0,0-1.047,1.539,10.955,10.955,0,0,0-.469,3.281V71Zm21.356-2.047A10.473,10.473,0,0,1,873,70.828a8.691,8.691,0,0,1-3.1.547,6.033,6.033,0,0,1-4.2-1.336,4.409,4.409,0,0,1-1.469-3.414,4.54,4.54,0,0,1,.555-2.227,4.592,4.592,0,0,1,1.453-1.617,6.833,6.833,0,0,1,2.023-.922,20.1,20.1,0,0,1,2.5-.422,25.707,25.707,0,0,0,5.016-.969q.016-.578.016-.734a3.105,3.105,0,0,0-.8-2.422,4.707,4.707,0,0,0-3.2-.953,4.967,4.967,0,0,0-2.93.7,4.248,4.248,0,0,0-1.4,2.461l-2.75-.375a6.814,6.814,0,0,1,1.234-2.852,5.411,5.411,0,0,1,2.484-1.672,11.081,11.081,0,0,1,3.766-.586,9.967,9.967,0,0,1,3.453.5,4.55,4.55,0,0,1,1.953,1.258,4.424,4.424,0,0,1,.875,1.914,15.836,15.836,0,0,1,.141,2.594v3.75a39.8,39.8,0,0,0,.18,4.961A6.259,6.259,0,0,0,879.512,71h-2.937A5.962,5.962,0,0,1,876.012,68.953Zm-.234-6.281a20.634,20.634,0,0,1-4.594,1.063,10.626,10.626,0,0,0-2.453.563,2.446,2.446,0,0,0-1.109.914,2.486,2.486,0,0,0,.461,3.211,3.664,3.664,0,0,0,2.492.75,5.8,5.8,0,0,0,2.891-.711,4.378,4.378,0,0,0,1.859-1.945,6.794,6.794,0,0,0,.453-2.812ZM882.82,71V54.406h2.516v2.328a5.914,5.914,0,0,1,2.078-1.961,5.838,5.838,0,0,1,2.953-.742,5.459,5.459,0,0,1,3.023.766,4.1,4.1,0,0,1,1.664,2.141,5.957,5.957,0,0,1,5.125-2.906,5.051,5.051,0,0,1,3.8,1.367,5.843,5.843,0,0,1,1.328,4.211V71h-2.8V60.547a7.7,7.7,0,0,0-.273-2.43,2.353,2.353,0,0,0-.992-1.2,3.1,3.1,0,0,0-1.687-.453,3.927,3.927,0,0,0-2.906,1.164,5.127,5.127,0,0,0-1.156,3.727V71H892.68V60.219a4.744,4.744,0,0,0-.687-2.812,2.6,2.6,0,0,0-2.25-.937,4.087,4.087,0,0,0-2.2.625,3.545,3.545,0,0,0-1.461,1.828,10.291,10.291,0,0,0-.453,3.469V71Zm27.293,0V67.8h3.2V71Z" transform="translate(415 721)" fill="#fff"/></g></g></svg>