<svg id="Fanshawe-logo-no-word" xmlns="http://www.w3.org/2000/svg" width="89.643" height="89.028" viewBox="0 0 89.643 89.028">
  <g id="F1" transform="translate(26.314 47.313)">
    <g id="F1-2">
      <path id="Path_10" data-name="Path 10" d="M33.37,101.265l.173.181L69,67.01,62.1,60,33.528,88.017Z" transform="translate(-33.37 -60)" fill="#e12726"/>
      <path id="Path_11" data-name="Path 11" d="M86.849,90.541l-.173.173-16.8-17.072L69.8,60,87.006,77.482Z" transform="translate(-41.073 -60)" fill="#b3272d"/>
      <path id="Path_12" data-name="Path 12" d="M72.694,104.439l-.181.181L55.44,87.579l.268-13.839,17.4,17.679Z" transform="translate(-38.037 -62.905)" fill="#e02927"/>
      <path id="Path_13" data-name="Path 13" d="M62.565,80.7,55.712,73.74,55.46,87.595Z" transform="translate(-38.041 -62.905)" fill="#b3272d"/>
    </g>
  </g>
  <g id="F2" transform="translate(0 26.022)">
    <g id="F2-2">
      <path id="Path_14" data-name="Path 14" d="M.651,33l-.181.173L34.8,68.73l7.034-6.884L13.9,33.2Z" transform="translate(-0.099 -33)" fill="#e12726"/>
      <path id="Path_15" data-name="Path 15" d="M14.083,86.55l-.173-.181L31.03,69.612l13.65-.032L27.142,86.747Z" transform="translate(-2.941 -40.735)" fill="#b3272d"/>
      <path id="Path_16" data-name="Path 16" d="M.181,72.336,0,72.155,17.088,55.13l13.839.315L13.2,72.794Z" transform="translate(0 -37.679)" fill="#e02927"/>
      <path id="Path_17" data-name="Path 17" d="M28.534,62.281,35.5,55.452,21.65,55.16Z" transform="translate(-4.578 -37.686)" fill="#b3272d"/>
    </g>
  </g>
  <g id="F3" transform="translate(47.905 16.875)">
    <g id="F3-2">
      <path id="Path_18" data-name="Path 18" d="M101.936,70.16l.181-.173L67.784,34.43,60.75,41.314,88.689,69.962Z" transform="translate(-60.75 -24.155)" fill="#e12726"/>
      <path id="Path_19" data-name="Path 19" d="M91.346,21.6l.173.173L74.4,38.527l-13.65.032L78.288,21.4Z" transform="translate(-60.75 -21.4)" fill="#b3272d"/>
      <path id="Path_20" data-name="Path 20" d="M105.206,35.667l.181.181L88.3,52.874,74.46,52.558,92.187,35.21Z" transform="translate(-63.649 -24.32)" fill="#e02927"/>
      <path id="Path_21" data-name="Path 21" d="M81.431,48.55,74.46,55.379l13.855.3Z" transform="translate(-63.649 -27.141)" fill="#b3272d"/>
    </g>
  </g>
  <g id="F4" transform="translate(16.639)">
    <g id="F4-2">
      <path id="Path_22" data-name="Path 22" d="M69.891.693,69.718.52,34.13,34.814,41,41.848l28.68-27.9Z" transform="translate(-23.855 -0.11)" fill="#e12726"/>
      <path id="Path_23" data-name="Path 23" d="M21.313,14.073l.181-.173L38.227,31.035l.016,13.65L21.1,27.132Z" transform="translate(-21.1 -2.939)" fill="#b3272d"/>
      <path id="Path_24" data-name="Path 24" d="M35.4.181,35.585,0,52.594,17.112l-.331,13.839L34.93,13.2Z" transform="translate(-24.024)" fill="#e02927"/>
      <path id="Path_25" data-name="Path 25" d="M48.26,28.546l6.821,6.979L55.4,21.67Z" transform="translate(-26.843 -4.582)" fill="#b3272d"/>
    </g>
  </g>
</svg>
